<svg width="414" height="375" viewBox="0 0 414 375" fill="none" xmlns="http://www.w3.org/2000/svg">
<path d="M156.075 127.988H43.3815C38.3194 127.988 34.2158 132.091 34.2158 137.153V249.847C34.2158 254.909 38.3194 259.013 43.3815 259.013H156.075C161.137 259.013 165.241 254.909 165.241 249.847V137.153C165.241 132.091 161.137 127.988 156.075 127.988Z" fill="#F5EBDD"/>
<path d="M140.766 124.069C142.513 124.069 143.928 122.653 143.928 120.906C143.928 119.16 142.513 117.744 140.766 117.744C139.019 117.744 137.604 119.16 137.604 120.906C137.604 122.653 139.019 124.069 140.766 124.069Z" fill="#A15842"/>
<path d="M140.766 109.912V119.853" stroke="#A15842" stroke-width="4" stroke-miterlimit="10"/>
<path d="M154.394 113.228H149.581V154.794H154.394V113.228Z" fill="#A15842"/>
<path d="M166.312 78.9563C165.35 80.8594 161.312 87.5032 151.987 87.5032C142.662 87.5032 138.628 80.8594 137.662 78.9563L128.646 113.228H175.331L166.312 78.9563Z" fill="#FFBE21"/>
<path d="M162.422 79.6218L168.484 113.234" stroke="#F5EBDD" stroke-width="4" stroke-miterlimit="10" stroke-linecap="round"/>
<path d="M141.557 80.0593L135.572 113.234" stroke="#F5EBDD" stroke-width="4" stroke-miterlimit="10" stroke-linecap="round"/>
<path d="M148.056 79.8438L145.737 113.222" stroke="#F5EBDD" stroke-width="4" stroke-miterlimit="10" stroke-linecap="round"/>
<path d="M155.919 79.8438L158.244 113.287" stroke="#F5EBDD" stroke-width="4" stroke-miterlimit="10" stroke-linecap="round"/>
<path d="M152 87.5C161.328 87.5 165.362 80.8562 166.325 78.9531V78.8875H137.681L137.662 78.9531C138.628 80.8593 142.662 87.5 152 87.5Z" fill="#FF7235"/>
<path d="M335.291 63.8281H222.597C217.535 63.8281 213.432 67.9317 213.432 72.9938V185.688C213.432 190.75 217.535 194.853 222.597 194.853H335.291C340.353 194.853 344.457 190.75 344.457 185.688V72.9938C344.457 67.9317 340.353 63.8281 335.291 63.8281Z" fill="#F5EBDD"/>
<path d="M151.834 317.744C150.965 317.744 150.125 317.427 149.474 316.851C148.822 316.276 148.403 315.482 148.297 314.619L145.659 292.459H158.009L155.372 314.619C155.266 315.482 154.847 316.276 154.195 316.852C153.544 317.428 152.704 317.745 151.834 317.744Z" fill="#30242A"/>
<path d="M290.388 317.744C289.518 317.745 288.679 317.427 288.028 316.852C287.377 316.276 286.959 315.482 286.853 314.619L284.216 292.459H296.563L293.925 314.619C293.819 315.482 293.401 316.276 292.749 316.852C292.097 317.428 291.257 317.745 290.388 317.744Z" fill="#30242A"/>
<path d="M79.3719 200.878H134.813V292.753H54.0938V226.153C54.0946 219.45 56.7582 213.021 61.4986 208.281C66.2391 203.541 72.6682 200.878 79.3719 200.878Z" fill="#FFB7D5"/>
<path d="M141.418 154.794H332.431C339.135 154.794 345.565 157.457 350.305 162.198C355.046 166.938 357.709 173.368 357.709 180.072V292.744H116.146V180.069C116.146 173.365 118.81 166.935 123.55 162.194C128.291 157.454 134.72 154.791 141.425 154.791L141.418 154.794Z" fill="#FFB7D5"/>
<path d="M116.141 214.416V292.744" stroke="#A15842" stroke-width="4" stroke-miterlimit="10" stroke-linecap="round"/>
<path d="M141.418 237.625H332.431C339.135 237.625 345.565 240.288 350.305 245.029C355.046 249.769 357.709 256.199 357.709 262.903V292.747H116.146V262.903C116.146 256.2 118.809 249.771 123.548 245.031C128.287 240.291 134.715 237.627 141.418 237.625Z" fill="#FFB7D5"/>
<path d="M258.2 237.625H140.506C134.041 237.625 127.841 240.193 123.27 244.764C118.699 249.335 116.131 255.535 116.131 262V292.756" stroke="#A15842" stroke-width="4" stroke-miterlimit="10" stroke-linecap="round"/>
<path d="M276.385 238.009V292.744" stroke="#A15842" stroke-width="4" stroke-miterlimit="10"/>
<path d="M357.709 200.275H301.35" stroke="#A15842" stroke-width="4" stroke-miterlimit="10"/>
<path d="M99.2748 190.625C106.503 191.528 108.756 188.459 109.815 185.806C111.019 182.797 110.244 180.209 109.306 176.847C109.306 176.847 111.694 175.547 111.322 174.056C111.009 172.853 108.294 172.719 108.294 172.719C108.187 172.181 108.093 171.624 108.009 171.047C107.406 166.828 106.503 164.419 106.503 164.419C104.394 165.022 101.684 164.731 100.781 164.419C99.5611 167.799 97.3585 170.737 94.4561 172.856C94.4561 172.856 87.8279 165.628 83.6123 171.05C80.1748 175.472 85.1186 180.987 88.4311 181.591C86.4623 185.744 81.1654 188.153 78.4092 189.159C78.5779 190.466 78.7373 191.678 78.8779 192.734H99.5029L99.2748 190.625Z" fill="#EAA58B"/>
<path d="M171.01 216.85C172.098 212.979 172.987 209.055 173.672 205.094L166.444 185.516C166.444 185.516 169.456 177.391 166.756 176.178C164.056 174.966 158.01 182.812 155.6 189.131C154.56 191.862 151.716 198.141 148.825 204.387L171.01 216.85Z" fill="#EAA58B"/>
<path d="M141.14 220.756C141.14 220.756 123.672 205.997 116.109 200.572C108.547 195.147 99.8779 196.059 99.8779 196.059L99.4998 192.744H78.8748C79.1873 195.097 79.3904 196.659 79.3904 196.659L64.0342 251.481L109.812 247.866L108.609 230.991C108.609 230.991 133.297 251.616 147.465 249.666C160.244 247.897 167.503 229.447 171.006 216.853L148.819 204.391C145.028 212.597 141.14 220.756 141.14 220.756Z" fill="#3EC1F3"/>
<path d="M88.4313 181.6C85.1188 180.997 80.1719 175.481 83.6126 171.059C87.8282 165.638 94.4563 172.866 94.4563 172.866C97.3587 170.747 99.5614 167.808 100.781 164.428C101.684 164.741 104.394 165.031 106.503 164.428C106.503 164.428 111.022 162.922 110.719 159.309C110.316 154.459 102.888 156.597 102.888 156.597C102.888 156.597 94.7625 150.572 86.0125 154.488C76.6875 158.684 75.7813 167.144 76.3751 172.866C76.7188 176.15 77.6594 183.491 78.4001 189.169C81.1657 188.159 86.4625 185.753 88.4313 181.6Z" fill="#30242A"/>
<path d="M172.207 208.859C170.829 209.428 169.619 209.594 169.082 209.284C167.732 208.516 167.519 206.906 169.122 204.644C169.122 204.644 165.313 206.128 164.138 204.197C162.963 202.266 164.729 200.488 164.729 200.488C164.729 200.488 162.032 201.231 161.372 198.831C160.713 196.431 162.935 195.175 162.935 195.175C162.935 195.175 161.416 194.609 161.372 193.025C161.313 190.722 165.066 188.853 166.147 188.363" stroke="#A15842" stroke-width="8" stroke-miterlimit="10" stroke-linecap="round"/>
<path d="M109.275 230.925L108.159 217.897" stroke="#4756DF" stroke-width="4" stroke-miterlimit="10" stroke-linecap="round"/>
<path d="M98.9902 191.181C97.2426 190.786 95.5593 190.146 93.9902 189.281" stroke="#A15842" stroke-width="4" stroke-miterlimit="10" stroke-linecap="round"/>
<path d="M65.9902 247.413L73.7527 226.772" stroke="#4756DF" stroke-width="4" stroke-miterlimit="10" stroke-linecap="round"/>
<path d="M106.85 179.934C106.353 180.247 104.484 180.484 103.725 179.05" stroke="#A15842" stroke-width="4" stroke-miterlimit="10" stroke-linecap="round"/>
<path d="M104.094 173.166C104.592 173.166 104.997 172.761 104.997 172.263C104.997 171.764 104.592 171.359 104.094 171.359C103.595 171.359 103.19 171.764 103.19 172.263C103.19 172.761 103.595 173.166 104.094 173.166Z" fill="#A15842"/>
<path d="M87.5283 174.975L90.8408 176.781" stroke="#A15842" stroke-width="4" stroke-miterlimit="10" stroke-linecap="round"/>
<path d="M172.031 305.481L195.103 298.653C193.343 292.572 189.978 281.044 187.812 274.328L159.021 286.347C162.789 293.094 167.142 299.497 172.031 305.481Z" fill="#EAA58B"/>
<path d="M172.469 305.997C171.793 308.56 171.375 311.185 171.219 313.831H212.034C211.251 311.947 209.861 310.378 208.084 309.375L196.263 302.681C196.263 302.681 195.813 301.119 195.103 298.65L172.031 305.481C172.312 305.819 172.469 305.997 172.469 305.997Z" fill="#FFBE21"/>
<path d="M171.262 317.744H212.825L212.697 316.456C212.607 315.553 212.383 314.668 212.031 313.831H171.215C171.126 315.135 171.141 316.443 171.262 317.744Z" fill="#FF7235"/>
<path d="M150.781 267.144C152.775 274.019 155.828 280.616 159.022 286.347L187.813 274.328C187.5 273.319 187.188 272.419 186.925 271.659C177.916 245.625 172.469 224.687 159.216 222.566C138.356 219.247 102.872 255.172 97.5439 260.691L105.219 265.344L129.35 276.678L138.141 278.706L150.781 267.144Z" fill="#A15842"/>
<path d="M150.125 266.875C149.441 263.544 149.106 260.151 149.125 256.75" stroke="#30242A" stroke-width="4" stroke-miterlimit="10" stroke-linecap="round"/>
<path d="M261.925 195.756C261.925 195.756 233.06 203.372 220.363 210.516C205.903 218.641 205 229.491 195.966 256.9C193.056 265.722 191 272.809 189.091 278.378L213.978 290.128L214.025 290.034C214.025 290.034 226.213 288.244 227.278 273.159C228.081 261.909 228.466 253.562 232.397 245.147L299.566 195.75L261.925 195.756Z" fill="#30242A"/>
<path d="M175.672 294.925C166.969 296.244 163.337 297.938 161.922 301.884L178.362 309.538C178.362 309.538 187.178 307.038 191.925 308.259V308.275C195.105 309.021 198.209 310.06 201.197 311.378C206.095 304.692 210.383 297.581 214.009 290.128L189.122 278.378C185.553 288.8 182.578 293.878 175.672 294.925Z" fill="#4856DF"/>
<path d="M187.966 314.013L195.985 317.744C197.837 315.723 199.571 313.598 201.178 311.378C198.19 310.06 195.086 309.021 191.906 308.275L187.966 314.013Z" fill="#30242A"/>
<path d="M183.85 288.431L189.431 290.872" stroke="#F5EBDD" stroke-width="4" stroke-miterlimit="10" stroke-linecap="round"/>
<path d="M180.678 292.303L186.259 294.747" stroke="#F5EBDD" stroke-width="4" stroke-miterlimit="10" stroke-linecap="round"/>
<path d="M291.141 128.737C292.888 128.737 294.303 127.322 294.303 125.575C294.303 123.828 292.888 122.412 291.141 122.412C289.394 122.412 287.979 123.828 287.979 125.575C287.979 127.322 289.394 128.737 291.141 128.737Z" fill="#FFBE21"/>
<path d="M302.288 105.697C309.274 105.697 314.938 100.033 314.938 93.0469C314.938 86.0605 309.274 80.3969 302.288 80.3969C295.301 80.3969 289.638 86.0605 289.638 93.0469C289.638 100.033 295.301 105.697 302.288 105.697Z" fill="#30242A"/>
<path d="M293.562 101.481C294.337 101.837 287.841 86.4187 284.528 88.8281C281.397 91.0969 289.634 99.6875 293.562 101.481Z" fill="#3EC1F3"/>
<path d="M293.91 102.422C294.619 103.269 311.188 97.4719 308.91 94.125C306.688 90.9094 293.203 101.563 293.91 102.422Z" fill="#3EC1F3"/>
<path d="M324.878 162.925L326.328 162.7V162.275C325.859 162.522 325.375 162.739 324.878 162.925Z" fill="#30242A"/>
<path d="M285.419 159.612C299.519 159.869 306.634 145.512 308.441 141.228C307.816 141.112 307.191 141.012 306.503 140.937C298.378 140.034 296.866 139.734 294.153 136.119C291.441 132.503 291.141 125.275 291.141 125.275C291.141 125.275 298.166 123.712 297.166 118.047C296.262 112.925 290.237 112.925 286.925 116.541C286.925 116.541 281.803 115.334 276.984 109.912C276.984 109.912 273.459 110.741 271.047 110.337C270.422 114.281 270.459 118.694 269.747 122.262C268.541 128.287 269.434 132.203 273.059 134.312C276.684 136.422 280.891 134.912 280.891 134.912L279.987 140.334C279.987 140.334 274.728 140.944 270.344 142.322C271.216 149.128 274.35 159.412 285.419 159.612Z" fill="#A15842"/>
<path d="M304.997 195.756L306.638 194.644L303.794 195.756H304.997Z" fill="#A15842"/>
<path d="M239.938 160.819C239.938 160.819 224.147 139.256 220.359 134.912C216.141 130.094 210.419 124.975 208.613 126.787C206.806 128.6 211.925 134.619 211.925 134.619L211.022 154.197C211.022 154.197 221.397 182.175 232.71 185.825C238.366 187.65 249.11 182.837 256.7 178.762L244.96 157.512C241.975 159.469 239.938 160.819 239.938 160.819Z" fill="#A15842"/>
<path d="M324.878 162.925C324.878 162.925 323.671 156.3 322.165 152.684C319.912 147.272 316.193 142.684 308.44 141.228C306.634 145.513 299.518 159.869 285.418 159.613C274.35 159.413 271.215 149.128 270.353 142.322C269.429 142.604 268.525 142.947 267.646 143.347C264.468 144.831 252.046 152.875 244.959 157.513L256.687 178.75C261.621 176.103 265.225 173.75 265.225 173.75L261.912 195.738H303.787L306.631 194.625L326.318 181.269C326.293 175.127 325.811 168.996 324.878 162.925Z" fill="#FF7235"/>
<path d="M333.613 147.566C331.454 137.312 320.36 137.625 320.36 137.625C320.898 135.171 320.823 132.623 320.139 130.206C319.456 127.789 318.187 125.577 316.444 123.769C310.419 117.444 301.985 120.153 301.985 120.153C302.297 116.541 302.888 107.203 295.057 101.481C287.225 95.7593 277.288 98.7687 273.672 103.287C272.2 105.128 271.485 107.622 271.057 110.337C273.46 110.741 276.994 109.912 276.994 109.912C281.813 115.334 286.935 116.541 286.935 116.541C290.247 112.925 296.272 112.925 297.175 118.047C298.175 123.712 291.15 125.275 291.15 125.275C291.15 125.275 291.463 132.503 294.163 136.119C296.863 139.734 298.382 140.034 306.513 140.937C307.188 141.012 307.832 141.112 308.45 141.228C316.204 142.681 319.922 147.272 322.175 152.684C323.682 156.3 324.888 162.925 324.888 162.925C325.379 162.739 325.858 162.522 326.322 162.275C329.241 160.756 335.475 156.409 333.613 147.566Z" fill="#30242A"/>
<path d="M290.541 120.153L292.95 118.65" stroke="#30242A" stroke-width="4" stroke-miterlimit="10" stroke-linecap="round"/>
<path d="M275.125 127.225C275.625 127.537 277.491 127.775 278.25 126.341" stroke="#30242A" stroke-width="4" stroke-miterlimit="10" stroke-linecap="round"/>
<path d="M280.038 120.447C280.537 120.447 280.941 120.043 280.941 119.544C280.941 119.045 280.537 118.641 280.038 118.641C279.539 118.641 279.135 119.045 279.135 119.544C279.135 120.043 279.539 120.447 280.038 120.447Z" fill="#30242A"/>
<path d="M273.069 119.25C273.568 119.25 273.972 118.846 273.972 118.347C273.972 117.848 273.568 117.444 273.069 117.444C272.57 117.444 272.166 117.848 272.166 118.347C272.166 118.846 272.57 119.25 273.069 119.25Z" fill="#30242A"/>
<path d="M275.478 120.756C275.478 120.756 274.656 122.816 274.853 123.228C274.996 123.493 275.213 123.71 275.478 123.853" stroke="#30242A" stroke-width="4" stroke-miterlimit="10" stroke-linecap="round"/>
<path d="M213.875 158.262C214.365 158.258 214.841 158.098 215.234 157.806C216.3 156.741 216.084 155.181 214.003 153.481C214.003 153.481 217.947 153.891 218.547 151.781C219.147 149.672 217.043 148.469 217.043 148.469C217.043 148.469 219.753 148.469 219.753 146.059C219.753 143.65 217.343 143.047 217.343 143.047C217.343 143.047 218.618 142.125 218.247 140.637C217.643 138.228 212.525 137.625 212.525 137.625L211.818 136.762" stroke="#30242A" stroke-width="8" stroke-linecap="round" stroke-linejoin="round"/>
<path d="M281.062 135.5C282.333 134.995 283.573 134.416 284.775 133.766" stroke="#30242A" stroke-width="4" stroke-miterlimit="10" stroke-linecap="round"/>
<path d="M240.688 160.75L243.853 165.034" stroke="#30242A" stroke-width="4" stroke-miterlimit="10" stroke-linecap="round"/>
<path d="M266.256 163.825L264.719 173.475" stroke="#A15842" stroke-width="4" stroke-miterlimit="10" stroke-linecap="round"/>
<path d="M303.491 183.406L303.341 167.897" stroke="#A15842" stroke-width="4" stroke-miterlimit="10" stroke-linecap="round"/>
<path d="M320.816 138.047C320.381 139.674 319.798 141.257 319.075 142.778" stroke="black" stroke-width="4" stroke-linecap="round" stroke-linejoin="round"/>
<path d="M302.538 120.5L301.685 124.975" stroke="black" stroke-width="4" stroke-linecap="round" stroke-linejoin="round"/>
<path d="M284.216 196.059C284.216 196.059 258.309 204.184 243.853 211.119C229.478 217.994 231.203 234.009 233.913 262.022C234.872 271.925 235.994 279.678 236.563 285.819H264.063C265.475 285.031 273.813 279.678 268.841 265.034C265.209 254.344 262.075 247.263 262.075 237.975H285.075C291.618 237.975 297.903 235.425 302.595 230.865C307.287 226.305 310.016 220.096 310.203 213.556L310.706 196.056L284.216 196.059Z" fill="#30242A"/>
<path d="M231.319 305.625C223.994 310.506 221.422 313.575 221.803 317.753L239.928 317.728C239.928 317.728 246.856 311.731 251.675 310.828C254.868 310.221 258.112 309.919 261.362 309.925C262.466 304.522 263.653 296.412 263.862 285.931L264.062 285.828H236.562C237.522 296.134 236.912 301.891 231.319 305.625Z" fill="#4856DF"/>
<path d="M250.541 317.7H259.388C259.388 317.7 260.35 315.009 261.388 309.928C258.137 309.922 254.894 310.224 251.7 310.831L250.541 317.7Z" fill="#30242A"/>
<path d="M261.797 238.528H254.697" stroke="black" stroke-width="4" stroke-linecap="round" stroke-linejoin="round"/>
<path d="M236.01 297.716H242.8" stroke="#F5EBDD" stroke-width="4" stroke-miterlimit="10" stroke-linecap="round"/>
<path d="M234.5 302.534H241.291" stroke="#F5EBDD" stroke-width="4" stroke-miterlimit="10" stroke-linecap="round"/>
<path d="M142.8 249.972C150.202 249.972 156.203 243.971 156.203 236.569C156.203 229.166 150.202 223.166 142.8 223.166C135.397 223.166 129.396 229.166 129.396 236.569C129.396 243.971 135.397 249.972 142.8 249.972Z" fill="white"/>
<path d="M146.565 232.503C146.565 230.423 144.879 228.738 142.8 228.738C140.72 228.738 139.034 230.423 139.034 232.503V237.019C139.034 239.098 140.72 240.784 142.8 240.784C144.879 240.784 146.565 239.098 146.565 237.019V232.503Z" fill="#4856DF"/>
<path d="M142.8 239.581V243.8" stroke="#4856DF" stroke-width="4" stroke-miterlimit="10" stroke-linecap="round"/>
<path d="M140.641 243.8H144.956" stroke="#4856DF" stroke-width="4" stroke-miterlimit="10" stroke-linecap="round"/>
<path d="M48.2187 146.959C50.9629 146.959 53.1875 144.735 53.1875 141.991C53.1875 139.246 50.9629 137.022 48.2187 137.022C45.4746 137.022 43.25 139.246 43.25 141.991C43.25 144.735 45.4746 146.959 48.2187 146.959Z" fill="white"/>
<path d="M63.2812 146.959C66.0254 146.959 68.25 144.735 68.25 141.991C68.25 139.246 66.0254 137.022 63.2812 137.022C60.5371 137.022 58.3125 139.246 58.3125 141.991C58.3125 144.735 60.5371 146.959 63.2812 146.959Z" fill="white"/>
<path d="M78.3408 146.959C81.085 146.959 83.3096 144.735 83.3096 141.991C83.3096 139.246 81.085 137.022 78.3408 137.022C75.5967 137.022 73.3721 139.246 73.3721 141.991C73.3721 144.735 75.5967 146.959 78.3408 146.959Z" fill="white"/>
<path d="M156.063 127.988C158.493 127.988 160.823 128.953 162.542 130.671C164.26 132.389 165.225 134.72 165.225 137.15V249.847C165.225 252.277 164.26 254.607 162.542 256.326C160.823 258.044 158.493 259.009 156.063 259.009H43.3783C40.9483 259.009 38.6178 258.044 36.8995 256.326C35.1812 254.607 34.2158 252.277 34.2158 249.847V137.15C34.2158 134.72 35.1812 132.389 36.8995 130.671C38.6178 128.953 40.9483 127.988 43.3783 127.988H156.063ZM156.063 126.738H43.3783C40.6178 126.741 37.9712 127.839 36.0192 129.791C34.0672 131.743 32.9691 134.389 32.9658 137.15V249.847C32.9691 252.607 34.0672 255.254 36.0192 257.206C37.9712 259.158 40.6178 260.256 43.3783 260.259H156.063C158.823 260.256 161.47 259.158 163.422 257.206C165.374 255.254 166.472 252.607 166.475 249.847V137.15C166.472 134.389 165.374 131.743 163.422 129.791C161.47 127.839 158.823 126.741 156.063 126.738Z" fill="#F5EBDD"/>
<path d="M302.262 200.878H357.709V292.753H277V226.153C277.001 219.452 279.662 213.026 284.399 208.286C289.136 203.547 295.562 200.882 302.262 200.878Z" fill="#FFB7D5"/>
<path d="M343.854 292.794C344.594 290.668 345.977 288.825 347.813 287.521C349.648 286.217 351.843 285.516 354.094 285.516C356.345 285.516 358.541 286.217 360.376 287.521C362.211 288.825 363.594 290.668 364.335 292.794C365.043 290.765 366.337 288.992 368.054 287.699C369.771 286.407 371.833 285.653 373.979 285.534C373.02 283.825 371.879 282.225 370.575 280.763L366.638 276.353C365.412 274.978 364.639 273.258 364.424 271.428C364.21 269.598 364.563 267.747 365.438 266.125L368.782 259.912C367.844 260.85 362.419 265.937 354.185 265.937C345.95 265.937 340.529 260.859 339.591 259.912L342.938 266.125C343.811 267.748 344.163 269.599 343.947 271.429C343.731 273.259 342.958 274.978 341.732 276.353L337.794 280.763C336.487 282.228 335.344 283.831 334.385 285.544C336.499 285.695 338.522 286.462 340.205 287.75C341.888 289.039 343.156 290.792 343.854 292.794Z" fill="#4756DF"/>
<path d="M374.575 299.062C372.324 299.064 370.129 299.765 368.294 301.07C366.459 302.374 365.075 304.218 364.335 306.344C363.596 304.216 362.213 302.372 360.378 301.066C358.542 299.761 356.346 299.06 354.094 299.06C351.842 299.06 349.646 299.761 347.811 301.066C345.975 302.372 344.592 304.216 343.854 306.344C342.959 303.773 341.13 301.633 338.731 300.347C336.331 299.062 333.536 298.726 330.9 299.406C331.055 306.282 333.829 312.839 338.657 317.737H369.682C374.5 312.849 377.272 306.308 377.435 299.447C376.503 299.193 375.541 299.063 374.575 299.062Z" fill="#4756DF"/>
<path d="M354.169 265.938C362.403 265.938 367.825 260.859 368.766 259.912H339.575C340.513 260.859 345.938 265.938 354.169 265.938Z" fill="#30242A"/>
<path d="M343.853 306.35C344.592 304.223 345.975 302.378 347.81 301.073C349.645 299.767 351.841 299.066 354.094 299.066C356.346 299.066 358.542 299.767 360.377 301.073C362.212 302.378 363.595 304.223 364.334 306.35C365.237 303.754 367.091 301.598 369.524 300.317C371.956 299.037 374.783 298.728 377.434 299.453C377.559 294.587 376.364 289.777 373.978 285.534C371.832 285.653 369.77 286.407 368.053 287.699C366.336 288.992 365.042 290.765 364.334 292.794C363.594 290.668 362.21 288.825 360.375 287.521C358.54 286.217 356.345 285.516 354.094 285.516C351.842 285.516 349.647 286.217 347.812 287.521C345.977 288.825 344.593 290.668 343.853 292.794C343.154 290.788 341.881 289.031 340.192 287.742C338.503 286.453 336.472 285.689 334.353 285.544C331.984 289.775 330.796 294.565 330.915 299.412C333.551 298.733 336.346 299.069 338.746 300.354C341.145 301.639 342.974 303.779 343.869 306.35H343.853Z" fill="#3EC1F3"/>
<path d="M356.331 265.084C356.925 261.441 359.634 246.984 366.444 239.147" stroke="#30242A" stroke-width="4" stroke-miterlimit="10" stroke-linecap="round"/>
<path d="M353.184 265.188C353.141 261.05 352.716 240.719 348.672 228.588" stroke="#30242A" stroke-width="4" stroke-miterlimit="10" stroke-linecap="round"/>
<path d="M371.097 250.945C377.069 248.318 381.43 245.099 380.84 243.756C380.249 242.413 374.929 243.455 368.958 246.082C362.986 248.71 358.624 251.928 359.215 253.271C359.806 254.614 365.126 253.572 371.097 250.945Z" fill="#30242A"/>
<path d="M371.093 214.005C373.239 211.104 374.158 208.145 373.145 207.395C372.132 206.646 369.571 208.391 367.425 211.292C365.279 214.194 364.36 217.153 365.373 217.902C366.386 218.651 368.947 216.907 371.093 214.005Z" fill="#30242A"/>
<path d="M338.777 253.042C346.56 251.865 352.701 249.796 352.493 248.421C352.285 247.045 345.807 246.884 338.024 248.062C330.24 249.239 324.099 251.308 324.307 252.683C324.515 254.059 330.994 254.219 338.777 253.042Z" fill="#30242A"/>
<path d="M333.337 232.722V232.744C334.486 233.387 335.352 234.438 335.765 235.688C336.178 236.938 336.108 238.298 335.568 239.499C335.029 240.7 334.059 241.656 332.851 242.178C331.642 242.7 330.281 242.75 329.037 242.319V242.341C335.562 245.272 341.818 245.494 343.012 242.838C344.206 240.181 339.862 235.653 333.337 232.722Z" fill="#FF7235"/>
<path d="M352.625 211.475C351.234 211.116 349.428 213.216 348.109 216.475C346.522 212.528 344.219 209.888 342.669 210.4C341.119 210.913 340.837 214.403 341.912 218.525C338.919 216.7 336.215 216.088 335.315 217.203C334.165 218.628 336.381 222.322 340.265 225.456C341.371 226.358 342.561 227.15 343.819 227.822C344.033 226.971 344.456 226.188 345.05 225.542C345.644 224.897 346.39 224.41 347.219 224.126C348.049 223.842 348.937 223.77 349.802 223.916C350.667 224.062 351.481 224.422 352.172 224.963C352.754 223.71 353.22 222.407 353.562 221.069C354.812 216.225 354.397 211.934 352.625 211.475Z" fill="#FF7235"/>
<path d="M382.906 233.403C382.478 232.034 379.741 231.613 376.285 232.209C378.785 228.772 379.822 225.425 378.566 224.378C377.31 223.331 374.191 224.944 371.272 228.031C371.238 224.525 370.335 221.909 368.906 221.734C367.091 221.513 365.125 225.347 364.531 230.3C364.352 231.714 364.309 233.143 364.403 234.566C365.239 234.298 366.127 234.243 366.989 234.406C367.851 234.568 368.659 234.944 369.339 235.498C370.018 236.052 370.549 236.767 370.882 237.579C371.216 238.39 371.341 239.272 371.247 240.144C372.618 239.976 373.971 239.683 375.288 239.266C380.035 237.775 383.453 235.15 382.906 233.403Z" fill="#FF7235"/>
<path d="M369.366 235.534C368.685 234.967 367.871 234.58 367.001 234.411C366.131 234.241 365.232 234.295 364.388 234.566C364.556 236.922 365.153 238.725 366.05 239.397C366.885 240.172 368.822 240.428 371.231 240.144C371.325 239.281 371.203 238.409 370.878 237.605C370.552 236.8 370.033 236.089 369.366 235.534Z" fill="#30242A"/>
<path d="M347.275 224.097C346.433 224.375 345.675 224.861 345.071 225.511C344.467 226.16 344.038 226.952 343.822 227.812C345.91 228.916 347.757 229.375 348.8 228.956C349.9 228.644 351.141 227.15 352.175 224.953C351.493 224.417 350.688 224.058 349.833 223.909C348.978 223.76 348.099 223.824 347.275 224.097Z" fill="#30242A"/>
<path d="M333.919 241.563C333.361 241.249 332.94 240.738 332.74 240.13C332.54 239.521 332.576 238.86 332.84 238.277C333.103 237.693 333.576 237.23 334.165 236.978C334.753 236.726 335.415 236.704 336.019 236.916C335.949 236.052 335.667 235.218 335.198 234.489C334.728 233.76 334.086 233.159 333.328 232.738L329.028 242.313C329.842 242.599 330.714 242.68 331.567 242.549C332.42 242.418 333.228 242.079 333.919 241.563Z" fill="#F5EBDD"/>
<path d="M332.822 238.281C332.559 238.867 332.526 239.53 332.729 240.139C332.932 240.748 333.357 241.258 333.919 241.569C334.634 241.036 335.203 240.33 335.57 239.517C335.937 238.704 336.092 237.811 336.019 236.922C335.413 236.705 334.747 236.724 334.154 236.976C333.562 237.228 333.086 237.694 332.822 238.281Z" fill="#4856DF"/>
<path d="M227.438 82.8031C230.182 82.8031 232.406 80.5785 232.406 77.8344C232.406 75.0902 230.182 72.8656 227.438 72.8656C224.693 72.8656 222.469 75.0902 222.469 77.8344C222.469 80.5785 224.693 82.8031 227.438 82.8031Z" fill="white"/>
<path d="M242.497 82.8031C245.241 82.8031 247.466 80.5785 247.466 77.8344C247.466 75.0902 245.241 72.8656 242.497 72.8656C239.753 72.8656 237.528 75.0902 237.528 77.8344C237.528 80.5785 239.753 82.8031 242.497 82.8031Z" fill="white"/>
<path d="M257.557 82.8031C260.301 82.8031 262.525 80.5785 262.525 77.8344C262.525 75.0902 260.301 72.8656 257.557 72.8656C254.812 72.8656 252.588 75.0902 252.588 77.8344C252.588 80.5785 254.812 82.8031 257.557 82.8031Z" fill="white"/>
<path d="M335.291 63.8281C337.722 63.8281 340.053 64.7938 341.772 66.5127C343.491 68.2316 344.457 70.5629 344.457 72.9938V185.691C344.456 188.121 343.49 190.451 341.771 192.17C340.052 193.888 337.721 194.853 335.291 194.853H222.597C220.167 194.853 217.836 193.888 216.117 192.17C214.398 190.451 213.432 188.121 213.432 185.691V72.9938C213.432 71.7901 213.669 70.5982 214.129 69.4862C214.59 68.3742 215.265 67.3638 216.116 66.5127C216.967 65.6616 217.978 64.9864 219.09 64.5258C220.202 64.0652 221.394 63.8281 222.597 63.8281H335.291ZM335.291 62.5781H222.597C219.836 62.5814 217.189 63.6799 215.236 65.6324C213.283 67.585 212.185 70.2324 212.182 72.9938V185.691C212.185 188.452 213.283 191.099 215.236 193.051C217.189 195.003 219.836 196.101 222.597 196.103H335.291C338.052 196.101 340.699 195.003 342.652 193.051C344.605 191.099 345.703 188.452 345.707 185.691V72.9938C345.703 70.2324 344.605 67.585 342.652 65.6324C340.7 63.6799 338.052 62.5814 335.291 62.5781Z" fill="#F5EBDD"/>
<path d="M212.225 134.613C212.225 134.613 205.6 134.613 204.697 137.322C203.794 140.031 205.9 142.144 205.9 142.144C205.9 142.144 202.287 143.95 204.697 147.263C204.697 147.263 202.887 150.275 205.9 152.081C205.9 152.081 204.094 154.191 207.106 156.3C210.119 158.409 214.334 158.709 215.231 157.806C216.297 156.741 216.081 155.181 214 153.481C214 153.481 217.943 153.891 218.543 151.781C219.143 149.672 217.04 148.469 217.04 148.469C217.04 148.469 219.75 148.469 219.75 146.059C219.75 143.65 217.34 143.047 217.34 143.047C217.34 143.047 218.615 142.125 218.243 140.638C217.8 138.866 214.918 138.072 213.422 137.775C213.024 137.702 212.622 137.652 212.218 137.625L212.225 134.613Z" fill="#A15842"/>
<path d="M206.247 152.334C209.24 153.239 212.321 153.818 215.438 154.062" stroke="#30242A" stroke-width="4" stroke-miterlimit="10" stroke-linecap="round"/>
<path d="M205.125 147.5C209.485 148.579 213.974 149.041 218.462 148.872" stroke="#30242A" stroke-width="4" stroke-miterlimit="10" stroke-linecap="round"/>
<path d="M206.078 142.5C210.211 143.493 214.484 143.765 218.709 143.306" stroke="#30242A" stroke-width="4" stroke-miterlimit="10" stroke-linecap="round"/>
<path d="M302.887 191.853C302.887 191.853 278.49 198.181 270.056 204.506C266.246 207.363 261.618 212.631 260.118 215.047C258.618 217.463 252.287 226.494 255.3 226.794C258.312 227.094 261.625 221.675 261.625 221.675C261.625 221.675 259.812 228.3 260.125 230.409C260.437 232.519 263.437 231.916 263.437 231.916C265.846 234.325 267.956 231.313 267.956 231.313C272.171 234.022 276.706 219.566 276.706 219.566C279.18 218.346 281.463 216.774 283.484 214.897C283.484 214.897 310.44 214.747 318.875 207.216C324.862 201.872 326.34 191.331 326.337 181.3H302.9L302.887 191.853Z" fill="#A15842"/>
<path d="M303.112 191.122L308.612 189.747" stroke="#30242A" stroke-width="4" stroke-miterlimit="10" stroke-linecap="round"/>
<path d="M260.438 224.062C262 218.75 263.25 215.625 264.188 213.691" stroke="#30242A" stroke-width="4" stroke-miterlimit="10" stroke-linecap="round"/>
<path d="M268.4 215.5C265.687 221.344 264.025 228.394 263.25 231.875" stroke="#30242A" stroke-width="4" stroke-miterlimit="10" stroke-linecap="round"/>
<path d="M272.625 217.606C270.853 221.669 269.244 227.781 268.25 231.562" stroke="#30242A" stroke-width="4" stroke-miterlimit="10" stroke-linecap="round"/>
<path d="M265.587 202.397C258.247 205.009 250.053 208.147 243.853 211.119C232.74 216.431 231.25 227.216 232.397 244.769" stroke="black" stroke-width="4" stroke-linecap="round" stroke-linejoin="round"/>
<path d="M89.0527 288.841C76.7309 291.341 67.9496 294.553 67.9496 294.553L56.0934 289.3L56.1184 289.041L28.4902 314.131L29.0934 314.853C29.8475 315.758 30.7912 316.485 31.8577 316.985C32.9243 317.484 34.0875 317.744 35.2652 317.744H90.7184L89.0527 288.841Z" fill="#EAA58B"/>
<path d="M67.9375 294.553C67.9375 294.553 76.7188 291.325 89.0407 288.841L90.7063 317.744H130.284C140.984 317.744 150.363 310.244 152.356 299.731C153.684 292.716 151.609 285.203 144.153 280.094C132.159 271.875 106.503 261.119 99.8782 259.009L63.4313 267.447C56.5032 274.978 58.0094 287.325 58.0094 287.325L67.9375 294.553Z" fill="#A15842"/>
<path d="M89.1436 289.231C97.3373 287.647 106.49 286.275 119.303 286.872" stroke="#30242A" stroke-width="4" stroke-miterlimit="10" stroke-linecap="round"/>
<path d="M100.503 258.697C106.3 260.544 126.669 269.009 139.703 276.603" stroke="#30242A" stroke-width="4" stroke-miterlimit="10" stroke-linecap="round"/>
<path d="M61.9998 289.259L31.5967 316.85C32.7336 317.438 33.9949 317.744 35.2748 317.744H57.4061L67.9373 294.553C66.2879 292.45 64.2774 290.658 61.9998 289.259Z" fill="#FFBE21"/>
<path d="M58.009 287.322L28.4902 314.131L29.0934 314.853C29.7838 315.68 30.6341 316.359 31.5934 316.85L61.9996 289.259C60.7451 288.468 59.4067 287.818 58.009 287.322Z" fill="#FF7235"/>
<path d="M51.2314 312.475V317.812" stroke="#30242A" stroke-width="4" stroke-miterlimit="10" stroke-linecap="round"/>
<path d="M46.4121 312.475V317.812" stroke="#30242A" stroke-width="4" stroke-miterlimit="10" stroke-linecap="round"/>
<path d="M79.5156 196.153C80.4531 196.066 82.4094 195.906 84.3656 195.906" stroke="#4756DF" stroke-width="4" stroke-miterlimit="10" stroke-linecap="round"/>
<path d="M166.444 185.516C166.444 185.516 172.319 183.569 173.944 186.019C175.569 188.469 174.062 191.144 174.062 191.144C174.062 191.144 178.153 191.953 176.662 195.909C176.662 195.909 179.284 198.409 176.784 201.034C176.784 201.034 179.159 202.638 176.737 205.559C174.315 208.481 170.206 209.934 169.059 209.284C167.709 208.516 167.497 206.906 169.1 204.644C169.1 204.644 165.29 206.128 164.115 204.197C162.94 202.266 164.706 200.488 164.706 200.488C164.706 200.488 162.009 201.231 161.35 198.831C160.69 196.431 162.912 195.175 162.912 195.175C162.912 195.175 161.394 194.609 161.35 193.025C161.29 190.722 165.331 188.716 166.412 188.228L166.444 185.516Z" fill="#EAA58B"/>
<path d="M162 195.597C164.319 195.191 170.209 193.934 174.109 191.222" stroke="#A15842" stroke-width="4" stroke-miterlimit="10" stroke-linecap="round"/>
<path d="M162.938 201.225C167.834 200.612 172.532 198.912 176.688 196.25" stroke="#A15842" stroke-width="4" stroke-miterlimit="10" stroke-linecap="round"/>
<path d="M167.312 205.809C168.147 205.516 173.591 203.562 176.894 201.469" stroke="#A15842" stroke-width="4" stroke-miterlimit="10" stroke-linecap="round"/>
<path d="M83.9279 244.375C78.4748 245.041 72.3904 246.025 65.5404 247.25L75.1779 221.347L79.3936 196.659C79.3936 196.659 65.5404 198.166 59.2154 205.409C53.381 212.075 35.1185 243.059 42.3404 259.325C49.5623 275.591 71.2623 269.853 76.3748 268.347C79.1654 267.525 83.3936 265.631 87.7342 264.222L83.9279 244.375Z" fill="#3EC1F3"/>
<path d="M98.0688 262.625C104.697 263.528 112.225 266.841 113.431 262.625C113.431 262.625 117.494 262.522 116.212 258.659C116.212 258.659 118.25 258.406 118.55 256.9C119.153 253.891 111.925 251.178 111.925 251.178C111.925 251.178 117.647 252.081 118.853 250.866C120.387 249.328 118.894 246.881 109.547 244.616C102.759 242.972 94.5469 243.072 83.9219 244.372L87.7375 264.206C91.375 263.05 95.0563 262.212 98.0688 262.625Z" fill="#EAA58B"/>
<path d="M114.5 251.563C111.291 250.331 105.197 248.284 100.781 247.566" stroke="#A15842" stroke-width="4" stroke-miterlimit="10" stroke-linecap="round"/>
<path d="M116.337 258.534C112.15 256.659 104.062 253.184 99.7246 252.534" stroke="#A15842" stroke-width="4" stroke-miterlimit="10" stroke-linecap="round"/>
<path d="M113.091 262.938C109.863 261.3 103.404 258.225 98.8223 257.353" stroke="#A15842" stroke-width="4" stroke-miterlimit="10" stroke-linecap="round"/>
<path d="M83.9816 244.825C81.0379 245.206 71.6223 246.506 57.5566 249.222" stroke="#4756DF" stroke-width="4" stroke-miterlimit="10" stroke-linecap="round"/>
<path d="M322.015 185.816C329.418 185.816 335.419 179.815 335.419 172.413C335.419 165.01 329.418 159.009 322.015 159.009C314.613 159.009 308.612 165.01 308.612 172.413C308.612 179.815 314.613 185.816 322.015 185.816Z" fill="white"/>
<path d="M325.781 168.347C325.781 166.267 324.095 164.581 322.016 164.581C319.936 164.581 318.25 166.267 318.25 168.347V172.863C318.25 174.942 319.936 176.628 322.016 176.628C324.095 176.628 325.781 174.942 325.781 172.863V168.347Z" fill="#4856DF"/>
<path d="M322.016 175.425V179.644" stroke="#4856DF" stroke-width="4" stroke-miterlimit="10" stroke-linecap="round"/>
<path d="M319.856 179.644H324.175" stroke="#4856DF" stroke-width="4" stroke-miterlimit="10" stroke-linecap="round"/>
</svg>
